<?xml version="1.0" encoding="UTF-8"?>
<svg id="Layer_1" data-name="Layer 1" xmlns="http://www.w3.org/2000/svg" viewBox="0 0 32.63 32.63">
  <defs>
    <style>
      .cls-1 {
        fill: #f47124;
        stroke: #603813;
        stroke-miterlimit: 10;
        stroke-width: .5px;
      }
    </style>
  </defs>
  <rect class="cls-1" x="9.15" y="18.39" width="1.8" height="14.45" rx=".9" ry=".9" transform="translate(-15.56 35.66) rotate(-90)"/>
  <rect class="cls-1" x="9.22" y="18.62" width="1.66" height="9" rx=".83" ry=".83" transform="translate(-13.07 33.16) rotate(-90)"/>
  <path class="cls-1" d="M29.78,10.03l-.05-.21c-.15-.66-.81-1.07-1.47-.92l-11.82,2.7c-.4.09-.69.38-.84.74l-.68-2.96c-.1-.42-.52-.69-.94-.59l.17-.04c.71-.16,1.17-.88,1-1.6h0c-.16-.71-.88-1.17-1.6-1l-6.17,1.41c-.71.16-1.17.88-1,1.6s.88,1.17,1.6,1l3.09-.7-2.92.67c-.42.1-.69.52-.59.94l1.71,7.47c.1.42.52.69.94.59l-.17.04c-.71.16-1.17.88-1,1.6h0c.16.71.88,1.17,1.6,1l6.17-1.41c.71-.16,1.17-.88,1-1.6-.16-.71-.88-1.17-1.6-1l-3.09.7,2.92-.67c.42-.1.69-.52.59-.94l-.68-2.96c.29.26.68.4,1.08.3l11.82-2.7c.66-.15,1.07-.81.92-1.47Z"/>
</svg>